<svg width="128" height="54" viewBox="0 0 128 54" fill="none" xmlns="http://www.w3.org/2000/svg">
<g filter="url(#filter0_d_110_253)">
<path d="M22.9516 36.216L14.6716 16.884C14.4316 16.284 14.2036 15.66 13.9876 15.012C13.7716 14.364 13.6636 13.848 13.6636 13.464C13.2796 13.488 12.9196 13.512 12.5836 13.536C12.2716 13.536 11.9836 13.548 11.7196 13.572V10.8H22.3396V13.176C21.4516 13.152 20.7676 13.344 20.2876 13.752C19.8316 14.16 19.8196 14.892 20.2516 15.948C20.8036 17.292 21.3556 18.648 21.9076 20.016C22.4596 21.384 23.0116 22.74 23.5636 24.084C23.9716 25.092 24.3196 25.98 24.6076 26.748C24.8956 27.492 25.2316 28.32 25.6156 29.232H25.6516C25.9156 28.512 26.1916 27.708 26.4796 26.82C26.7916 25.932 27.0916 25.08 27.3796 24.264C27.6916 23.424 27.9916 22.584 28.2796 21.744C28.5916 20.904 28.9036 20.076 29.2156 19.26C29.5276 18.42 29.8276 17.58 30.1156 16.74C30.2356 16.332 30.4276 15.78 30.6916 15.084C30.9796 14.388 31.2796 13.848 31.5916 13.464C31.2076 13.488 30.7156 13.512 30.1156 13.536C29.5156 13.536 29.0836 13.548 28.8196 13.572V10.8H36.9196V13.176C36.1036 13.2 35.3956 13.5 34.7956 14.076C34.1956 14.652 33.6316 15.636 33.1036 17.028C32.6956 18.084 32.2876 19.152 31.8796 20.232C31.4956 21.288 31.0996 22.356 30.6916 23.436C30.3076 24.492 29.9116 25.56 29.5036 26.64C29.0956 27.696 28.6876 28.764 28.2796 29.844C27.8956 30.9 27.4996 31.956 27.0916 33.012C26.7076 34.068 26.3116 35.136 25.9036 36.216H22.9516ZM39.2819 33.66C39.9539 33.66 40.4339 33.528 40.7219 33.264C41.0099 33 41.1899 32.628 41.2619 32.148C41.3579 31.644 41.4059 31.08 41.4059 30.456V24.48C41.4059 24.048 41.4179 23.556 41.4419 23.004C41.4659 22.428 41.5019 21.876 41.5499 21.348C41.1659 21.372 40.7099 21.396 40.1819 21.42C39.6779 21.42 39.2939 21.432 39.0299 21.456V18.72C40.1339 18.72 41.0699 18.66 41.8379 18.54C42.6059 18.42 43.2059 18.276 43.6379 18.108C44.0939 17.94 44.4059 17.784 44.5739 17.64H46.5179V30.204C46.5179 30.54 46.5059 31.02 46.4819 31.644C46.4579 32.244 46.4219 32.82 46.3739 33.372C46.7579 33.324 47.1779 33.3 47.6339 33.3C48.1139 33.276 48.4739 33.264 48.7139 33.264V36H39.2819V33.66ZM43.7819 14.796C42.9659 14.796 42.2939 14.508 41.7659 13.932C41.2379 13.356 40.9739 12.66 40.9739 11.844C40.9739 11.028 41.2499 10.332 41.8019 9.756C42.3539 9.18 43.0019 8.892 43.7459 8.892C44.5139 8.892 45.1499 9.18 45.6539 9.756C46.1819 10.332 46.4459 11.028 46.4459 11.844C46.4459 12.66 46.2059 13.356 45.7259 13.932C45.2459 14.508 44.5979 14.796 43.7819 14.796ZM52.8592 33.66C53.5312 33.66 54.0112 33.528 54.2992 33.264C54.5872 33 54.7672 32.628 54.8392 32.148C54.9352 31.644 54.9832 31.08 54.9832 30.456V24.408C54.9832 23.976 54.9952 23.496 55.0192 22.968C55.0432 22.416 55.0792 21.876 55.1272 21.348C54.7432 21.372 54.2872 21.396 53.7592 21.42C53.2552 21.42 52.8712 21.432 52.6072 21.456V18.72H54.0472C54.9832 18.72 55.8352 18.6 56.6032 18.36C57.3952 18.12 57.9112 17.88 58.1512 17.64H59.9152C59.9632 17.88 59.9992 18.336 60.0232 19.008C60.0472 19.656 60.0592 20.232 60.0592 20.736C60.7072 19.944 61.3192 19.308 61.8952 18.828C62.4712 18.348 63.0352 18 63.5872 17.784C64.1632 17.544 64.7392 17.424 65.3152 17.424C66.1552 17.424 66.8872 17.664 67.5112 18.144C68.1352 18.6 68.4472 19.356 68.4472 20.412C68.4472 20.772 68.3632 21.156 68.1952 21.564C68.0272 21.948 67.7632 22.272 67.4032 22.536C67.0432 22.8 66.5512 22.932 65.9272 22.932C65.4472 22.932 64.9552 22.788 64.4512 22.5C63.9472 22.212 63.6592 21.66 63.5872 20.844C63.1072 20.844 62.6272 21.048 62.1472 21.456C61.6672 21.84 61.2352 22.308 60.8512 22.86C60.4912 23.388 60.2392 23.88 60.0952 24.336V30.204C60.0952 30.54 60.0832 31.02 60.0592 31.644C60.0352 32.244 59.9992 32.82 59.9512 33.372C60.3352 33.324 60.7552 33.3 61.2112 33.3C61.6912 33.276 62.0512 33.264 62.2912 33.264V36H52.8592V33.66ZM79.45 45.756C77.386 45.756 75.754 45.528 74.554 45.072C73.354 44.64 72.502 44.064 71.998 43.344C71.494 42.624 71.242 41.856 71.242 41.04C71.242 40.536 71.35 40.032 71.566 39.528C71.782 39.024 72.13 38.532 72.61 38.052C73.114 37.596 73.798 37.212 74.662 36.9C73.678 36.636 72.982 36.216 72.574 35.64C72.19 35.04 71.998 34.404 71.998 33.732C71.998 33.108 72.25 32.412 72.754 31.644C73.258 30.852 74.17 30.252 75.49 29.844C74.482 29.436 73.654 28.8 73.006 27.936C72.358 27.072 72.01 26.028 71.962 24.804C71.914 23.364 72.274 22.092 73.042 20.988C73.81 19.86 74.818 18.984 76.066 18.36C77.314 17.736 78.622 17.424 79.99 17.424C80.614 17.424 81.334 17.508 82.15 17.676C82.966 17.844 83.674 18.132 84.274 18.54C84.538 17.796 84.874 17.1 85.282 16.452C85.714 15.78 86.23 15.24 86.83 14.832C87.43 14.4 88.102 14.184 88.846 14.184C89.662 14.184 90.274 14.4 90.682 14.832C91.114 15.24 91.33 15.792 91.33 16.488C91.33 16.776 91.258 17.1 91.114 17.46C90.994 17.796 90.766 18.084 90.43 18.324C90.118 18.564 89.674 18.684 89.098 18.684C88.738 18.684 88.378 18.552 88.018 18.288C87.658 18 87.442 17.664 87.37 17.28C87.058 17.376 86.746 17.688 86.434 18.216C86.122 18.744 85.942 19.212 85.894 19.62C86.59 20.22 87.118 20.916 87.478 21.708C87.838 22.5 88.018 23.352 88.018 24.264C88.018 25.656 87.622 26.892 86.83 27.972C86.062 29.028 85.054 29.868 83.806 30.492C82.582 31.092 81.262 31.392 79.846 31.392C79.534 31.392 79.186 31.38 78.802 31.356C78.418 31.308 78.046 31.284 77.686 31.284C77.158 31.284 76.714 31.38 76.354 31.572C75.994 31.764 75.814 32.028 75.814 32.364C75.814 32.82 76.162 33.132 76.858 33.3C77.554 33.468 78.742 33.6 80.422 33.696C82.27 33.792 83.878 34.032 85.246 34.416C86.638 34.776 87.718 35.352 88.486 36.144C89.254 36.936 89.638 38.028 89.638 39.42C89.638 40.452 89.338 41.352 88.738 42.12C88.138 42.912 87.334 43.572 86.326 44.1C85.342 44.652 84.25 45.06 83.05 45.324C81.85 45.612 80.65 45.756 79.45 45.756ZM80.494 43.272C82.198 43.272 83.482 42.96 84.346 42.336C85.234 41.712 85.678 41.064 85.678 40.392C85.678 39.888 85.486 39.468 85.102 39.132C84.718 38.82 84.142 38.568 83.374 38.376C82.63 38.184 81.67 38.064 80.494 38.016C79.966 37.968 79.354 37.932 78.658 37.908C77.962 37.884 77.35 37.824 76.822 37.728C76.462 38.016 76.186 38.376 75.994 38.808C75.802 39.24 75.694 39.66 75.67 40.068C75.622 41.028 76.03 41.796 76.894 42.372C77.782 42.972 78.982 43.272 80.494 43.272ZM79.99 28.98C80.638 28.98 81.178 28.776 81.61 28.368C82.066 27.96 82.402 27.444 82.618 26.82C82.858 26.196 82.978 25.56 82.978 24.912C82.978 24.072 82.87 23.268 82.654 22.5C82.438 21.708 82.102 21.072 81.646 20.592C81.214 20.088 80.65 19.836 79.954 19.836C78.994 19.836 78.25 20.268 77.722 21.132C77.194 21.996 76.93 22.98 76.93 24.084C76.93 24.924 77.05 25.728 77.29 26.496C77.53 27.24 77.878 27.84 78.334 28.296C78.79 28.752 79.342 28.98 79.99 28.98ZM94.2522 33.66C94.9242 33.66 95.4042 33.528 95.6922 33.264C95.9802 33 96.1602 32.628 96.2322 32.148C96.3282 31.644 96.3762 31.08 96.3762 30.456V24.48C96.3762 24.048 96.3882 23.556 96.4122 23.004C96.4362 22.428 96.4722 21.876 96.5202 21.348C96.1362 21.372 95.6802 21.396 95.1522 21.42C94.6482 21.42 94.2642 21.432 94.0002 21.456V18.72C95.1042 18.72 96.0402 18.66 96.8082 18.54C97.5762 18.42 98.1762 18.276 98.6082 18.108C99.0642 17.94 99.3762 17.784 99.5442 17.64H101.488V30.204C101.488 30.54 101.476 31.02 101.452 31.644C101.428 32.244 101.392 32.82 101.344 33.372C101.728 33.324 102.148 33.3 102.604 33.3C103.084 33.276 103.444 33.264 103.684 33.264V36H94.2522V33.66ZM98.7522 14.796C97.9362 14.796 97.2642 14.508 96.7362 13.932C96.2082 13.356 95.9442 12.66 95.9442 11.844C95.9442 11.028 96.2202 10.332 96.7722 9.756C97.3242 9.18 97.9722 8.892 98.7162 8.892C99.4842 8.892 100.12 9.18 100.624 9.756C101.152 10.332 101.416 11.028 101.416 11.844C101.416 12.66 101.176 13.356 100.696 13.932C100.216 14.508 99.5682 14.796 98.7522 14.796ZM107.254 33.66C107.926 33.66 108.406 33.528 108.694 33.264C109.006 33 109.198 32.628 109.27 32.148C109.342 31.644 109.378 31.08 109.378 30.456V15.66C109.378 15.228 109.39 14.736 109.414 14.184C109.438 13.608 109.474 13.056 109.522 12.528C109.138 12.552 108.682 12.576 108.154 12.6C107.65 12.6 107.266 12.612 107.002 12.636V9.9C108.13 9.9 109.066 9.84 109.81 9.72C110.578 9.6 111.178 9.456 111.61 9.288C112.066 9.12 112.378 8.964 112.546 8.82H114.49V30.204C114.49 30.54 114.478 31.02 114.454 31.644C114.43 32.244 114.394 32.82 114.346 33.372C114.754 33.324 115.186 33.3 115.642 33.3C116.098 33.276 116.446 33.264 116.686 33.264V36H107.254V33.66Z" fill="#9190D0"/>
</g>
<path d="M21.9516 36.216L13.6716 16.884C13.4316 16.284 13.2036 15.66 12.9876 15.012C12.7716 14.364 12.6636 13.848 12.6636 13.464C12.2796 13.488 11.9196 13.512 11.5836 13.536C11.2716 13.536 10.9836 13.548 10.7196 13.572V10.8H21.3396V13.176C20.4516 13.152 19.7676 13.344 19.2876 13.752C18.8316 14.16 18.8196 14.892 19.2516 15.948C19.8036 17.292 20.3556 18.648 20.9076 20.016C21.4596 21.384 22.0116 22.74 22.5636 24.084C22.9716 25.092 23.3196 25.98 23.6076 26.748C23.8956 27.492 24.2316 28.32 24.6156 29.232H24.6516C24.9156 28.512 25.1916 27.708 25.4796 26.82C25.7916 25.932 26.0916 25.08 26.3796 24.264C26.6916 23.424 26.9916 22.584 27.2796 21.744C27.5916 20.904 27.9036 20.076 28.2156 19.26C28.5276 18.42 28.8276 17.58 29.1156 16.74C29.2356 16.332 29.4276 15.78 29.6916 15.084C29.9796 14.388 30.2796 13.848 30.5916 13.464C30.2076 13.488 29.7156 13.512 29.1156 13.536C28.5156 13.536 28.0836 13.548 27.8196 13.572V10.8H35.9196V13.176C35.1036 13.2 34.3956 13.5 33.7956 14.076C33.1956 14.652 32.6316 15.636 32.1036 17.028C31.6956 18.084 31.2876 19.152 30.8796 20.232C30.4956 21.288 30.0996 22.356 29.6916 23.436C29.3076 24.492 28.9116 25.56 28.5036 26.64C28.0956 27.696 27.6876 28.764 27.2796 29.844C26.8956 30.9 26.4996 31.956 26.0916 33.012C25.7076 34.068 25.3116 35.136 24.9036 36.216H21.9516ZM38.2819 33.66C38.9539 33.66 39.4339 33.528 39.7219 33.264C40.0099 33 40.1899 32.628 40.2619 32.148C40.3579 31.644 40.4059 31.08 40.4059 30.456V24.48C40.4059 24.048 40.4179 23.556 40.4419 23.004C40.4659 22.428 40.5019 21.876 40.5499 21.348C40.1659 21.372 39.7099 21.396 39.1819 21.42C38.6779 21.42 38.2939 21.432 38.0299 21.456V18.72C39.1339 18.72 40.0699 18.66 40.8379 18.54C41.6059 18.42 42.2059 18.276 42.6379 18.108C43.0939 17.94 43.4059 17.784 43.5739 17.64H45.5179V30.204C45.5179 30.54 45.5059 31.02 45.4819 31.644C45.4579 32.244 45.4219 32.82 45.3739 33.372C45.7579 33.324 46.1779 33.3 46.6339 33.3C47.1139 33.276 47.4739 33.264 47.7139 33.264V36H38.2819V33.66ZM42.7819 14.796C41.9659 14.796 41.2939 14.508 40.7659 13.932C40.2379 13.356 39.9739 12.66 39.9739 11.844C39.9739 11.028 40.2499 10.332 40.8019 9.756C41.3539 9.18 42.0019 8.892 42.7459 8.892C43.5139 8.892 44.1499 9.18 44.6539 9.756C45.1819 10.332 45.4459 11.028 45.4459 11.844C45.4459 12.66 45.2059 13.356 44.7259 13.932C44.2459 14.508 43.5979 14.796 42.7819 14.796ZM51.8592 33.66C52.5312 33.66 53.0112 33.528 53.2992 33.264C53.5872 33 53.7672 32.628 53.8392 32.148C53.9352 31.644 53.9832 31.08 53.9832 30.456V24.408C53.9832 23.976 53.9952 23.496 54.0192 22.968C54.0432 22.416 54.0792 21.876 54.1272 21.348C53.7432 21.372 53.2872 21.396 52.7592 21.42C52.2552 21.42 51.8712 21.432 51.6072 21.456V18.72H53.0472C53.9832 18.72 54.8352 18.6 55.6032 18.36C56.3952 18.12 56.9112 17.88 57.1512 17.64H58.9152C58.9632 17.88 58.9992 18.336 59.0232 19.008C59.0472 19.656 59.0592 20.232 59.0592 20.736C59.7072 19.944 60.3192 19.308 60.8952 18.828C61.4712 18.348 62.0352 18 62.5872 17.784C63.1632 17.544 63.7392 17.424 64.3152 17.424C65.1552 17.424 65.8872 17.664 66.5112 18.144C67.1352 18.6 67.4472 19.356 67.4472 20.412C67.4472 20.772 67.3632 21.156 67.1952 21.564C67.0272 21.948 66.7632 22.272 66.4032 22.536C66.0432 22.8 65.5512 22.932 64.9272 22.932C64.4472 22.932 63.9552 22.788 63.4512 22.5C62.9472 22.212 62.6592 21.66 62.5872 20.844C62.1072 20.844 61.6272 21.048 61.1472 21.456C60.6672 21.84 60.2352 22.308 59.8512 22.86C59.4912 23.388 59.2392 23.88 59.0952 24.336V30.204C59.0952 30.54 59.0832 31.02 59.0592 31.644C59.0352 32.244 58.9992 32.82 58.9512 33.372C59.3352 33.324 59.7552 33.3 60.2112 33.3C60.6912 33.276 61.0512 33.264 61.2912 33.264V36H51.8592V33.66ZM78.45 45.756C76.386 45.756 74.754 45.528 73.554 45.072C72.354 44.64 71.502 44.064 70.998 43.344C70.494 42.624 70.242 41.856 70.242 41.04C70.242 40.536 70.35 40.032 70.566 39.528C70.782 39.024 71.13 38.532 71.61 38.052C72.114 37.596 72.798 37.212 73.662 36.9C72.678 36.636 71.982 36.216 71.574 35.64C71.19 35.04 70.998 34.404 70.998 33.732C70.998 33.108 71.25 32.412 71.754 31.644C72.258 30.852 73.17 30.252 74.49 29.844C73.482 29.436 72.654 28.8 72.006 27.936C71.358 27.072 71.01 26.028 70.962 24.804C70.914 23.364 71.274 22.092 72.042 20.988C72.81 19.86 73.818 18.984 75.066 18.36C76.314 17.736 77.622 17.424 78.99 17.424C79.614 17.424 80.334 17.508 81.15 17.676C81.966 17.844 82.674 18.132 83.274 18.54C83.538 17.796 83.874 17.1 84.282 16.452C84.714 15.78 85.23 15.24 85.83 14.832C86.43 14.4 87.102 14.184 87.846 14.184C88.662 14.184 89.274 14.4 89.682 14.832C90.114 15.24 90.33 15.792 90.33 16.488C90.33 16.776 90.258 17.1 90.114 17.46C89.994 17.796 89.766 18.084 89.43 18.324C89.118 18.564 88.674 18.684 88.098 18.684C87.738 18.684 87.378 18.552 87.018 18.288C86.658 18 86.442 17.664 86.37 17.28C86.058 17.376 85.746 17.688 85.434 18.216C85.122 18.744 84.942 19.212 84.894 19.62C85.59 20.22 86.118 20.916 86.478 21.708C86.838 22.5 87.018 23.352 87.018 24.264C87.018 25.656 86.622 26.892 85.83 27.972C85.062 29.028 84.054 29.868 82.806 30.492C81.582 31.092 80.262 31.392 78.846 31.392C78.534 31.392 78.186 31.38 77.802 31.356C77.418 31.308 77.046 31.284 76.686 31.284C76.158 31.284 75.714 31.38 75.354 31.572C74.994 31.764 74.814 32.028 74.814 32.364C74.814 32.82 75.162 33.132 75.858 33.3C76.554 33.468 77.742 33.6 79.422 33.696C81.27 33.792 82.878 34.032 84.246 34.416C85.638 34.776 86.718 35.352 87.486 36.144C88.254 36.936 88.638 38.028 88.638 39.42C88.638 40.452 88.338 41.352 87.738 42.12C87.138 42.912 86.334 43.572 85.326 44.1C84.342 44.652 83.25 45.06 82.05 45.324C80.85 45.612 79.65 45.756 78.45 45.756ZM79.494 43.272C81.198 43.272 82.482 42.96 83.346 42.336C84.234 41.712 84.678 41.064 84.678 40.392C84.678 39.888 84.486 39.468 84.102 39.132C83.718 38.82 83.142 38.568 82.374 38.376C81.63 38.184 80.67 38.064 79.494 38.016C78.966 37.968 78.354 37.932 77.658 37.908C76.962 37.884 76.35 37.824 75.822 37.728C75.462 38.016 75.186 38.376 74.994 38.808C74.802 39.24 74.694 39.66 74.67 40.068C74.622 41.028 75.03 41.796 75.894 42.372C76.782 42.972 77.982 43.272 79.494 43.272ZM78.99 28.98C79.638 28.98 80.178 28.776 80.61 28.368C81.066 27.96 81.402 27.444 81.618 26.82C81.858 26.196 81.978 25.56 81.978 24.912C81.978 24.072 81.87 23.268 81.654 22.5C81.438 21.708 81.102 21.072 80.646 20.592C80.214 20.088 79.65 19.836 78.954 19.836C77.994 19.836 77.25 20.268 76.722 21.132C76.194 21.996 75.93 22.98 75.93 24.084C75.93 24.924 76.05 25.728 76.29 26.496C76.53 27.24 76.878 27.84 77.334 28.296C77.79 28.752 78.342 28.98 78.99 28.98ZM93.2522 33.66C93.9242 33.66 94.4042 33.528 94.6922 33.264C94.9802 33 95.1602 32.628 95.2322 32.148C95.3282 31.644 95.3762 31.08 95.3762 30.456V24.48C95.3762 24.048 95.3882 23.556 95.4122 23.004C95.4362 22.428 95.4722 21.876 95.5202 21.348C95.1362 21.372 94.6802 21.396 94.1522 21.42C93.6482 21.42 93.2642 21.432 93.0002 21.456V18.72C94.1042 18.72 95.0402 18.66 95.8082 18.54C96.5762 18.42 97.1762 18.276 97.6082 18.108C98.0642 17.94 98.3762 17.784 98.5442 17.64H100.488V30.204C100.488 30.54 100.476 31.02 100.452 31.644C100.428 32.244 100.392 32.82 100.344 33.372C100.728 33.324 101.148 33.3 101.604 33.3C102.084 33.276 102.444 33.264 102.684 33.264V36H93.2522V33.66ZM97.7522 14.796C96.9362 14.796 96.2642 14.508 95.7362 13.932C95.2082 13.356 94.9442 12.66 94.9442 11.844C94.9442 11.028 95.2202 10.332 95.7722 9.756C96.3242 9.18 96.9722 8.892 97.7162 8.892C98.4842 8.892 99.1202 9.18 99.6242 9.756C100.152 10.332 100.416 11.028 100.416 11.844C100.416 12.66 100.176 13.356 99.6962 13.932C99.2162 14.508 98.5682 14.796 97.7522 14.796ZM106.254 33.66C106.926 33.66 107.406 33.528 107.694 33.264C108.006 33 108.198 32.628 108.27 32.148C108.342 31.644 108.378 31.08 108.378 30.456V15.66C108.378 15.228 108.39 14.736 108.414 14.184C108.438 13.608 108.474 13.056 108.522 12.528C108.138 12.552 107.682 12.576 107.154 12.6C106.65 12.6 106.266 12.612 106.002 12.636V9.9C107.13 9.9 108.066 9.84 108.81 9.72C109.578 9.6 110.178 9.456 110.61 9.288C111.066 9.12 111.378 8.964 111.546 8.82H113.49V30.204C113.49 30.54 113.478 31.02 113.454 31.644C113.43 32.244 113.394 32.82 113.346 33.372C113.754 33.324 114.186 33.3 114.642 33.3C115.098 33.276 115.446 33.264 115.686 33.264V36H106.254V33.66Z" fill="#AEADF7"/>
<defs>
<filter id="filter0_d_110_253" x="7.71973" y="8.82001" width="112.966" height="44.936" filterUnits="userSpaceOnUse" color-interpolation-filters="sRGB">
<feFlood flood-opacity="0" result="BackgroundImageFix"/>
<feColorMatrix in="SourceAlpha" type="matrix" values="0 0 0 0 0 0 0 0 0 0 0 0 0 0 0 0 0 0 127 0" result="hardAlpha"/>
<feOffset dy="4"/>
<feGaussianBlur stdDeviation="2"/>
<feComposite in2="hardAlpha" operator="out"/>
<feColorMatrix type="matrix" values="0 0 0 0 0 0 0 0 0 0 0 0 0 0 0 0 0 0 0.25 0"/>
<feBlend mode="normal" in2="BackgroundImageFix" result="effect1_dropShadow_110_253"/>
<feBlend mode="normal" in="SourceGraphic" in2="effect1_dropShadow_110_253" result="shape"/>
</filter>
</defs>
</svg>
